HIERARCHY
ROOT pelvis
{
  OFFSET 0 100 0
  CHANNELS 6 Xposition Yposition Zposition Zrotation Xrotation Yrotation
  JOINT pelvis_right_femur
  {
    OFFSET -10.78128 -3.44521 -0.5502486
    CHANNELS 3 Zrotation Xrotation Yrotation
    JOINT right_femur_tibia
    {
      OFFSET -0.8047443 -44.0398 -0.1307829
      CHANNELS 3 Zrotation Xrotation Yrotation
      JOINT right_tibia_foot
      {
        OFFSET 3.006224 -47.83518 -5
        CHANNELS 3 Zrotation Xrotation Yrotation
        End Site
        {
          OFFSET 0 -5 15
        }
      }
    }
  }
  JOINT pelvis_left_femur
  {
    OFFSET 10.78128 -3.44521 -0.5502486
    CHANNELS 3 Zrotation Xrotation Yrotation
    JOINT left_femur_tibia
    {
      OFFSET 0.8047443 -44.0398 -0.1307829
      CHANNELS 3 Zrotation Xrotation Yrotation
      JOINT left_tibia_foot
      {
        OFFSET -4.370144 -48.10324 -4.275266
        CHANNELS 3 Zrotation Xrotation Yrotation
        End Site
        {
          OFFSET 0 -5 15
        }
      }
    }
  }
  JOINT pelvis_spine1
  {
    OFFSET 0 6.468898 -3.129235
    CHANNELS 3 Zrotation Xrotation Yrotation
    JOINT spine1
    {
      OFFSET 0 23.15396 4.99043
      CHANNELS 3 Zrotation Xrotation Yrotation
      JOINT spine2
      {
        OFFSET 0 20.79997 -5.064912
        CHANNELS 3 Zrotation Xrotation Yrotation
        JOINT neck
        {
          OFFSET 0 14.38658 9.616178
          CHANNELS 3 Zrotation Xrotation Yrotation
          End Site
          {
            OFFSET 0 20 0
          }
        }
      }
      JOINT right_manubrium
      {
        OFFSET -5.722621 16.35077 3.967754
        CHANNELS 3 Zrotation Xrotation Yrotation
        JOINT right_clavicle
        {
          OFFSET -13.16364 1.694482 -4.693211
          CHANNELS 3 Zrotation Xrotation Yrotation
          JOINT right_humerus
          {
            OFFSET -28.5034 -0.3100689 -2.792744
            CHANNELS 3 Zrotation Xrotation Yrotation
            JOINT right_radius
            {
              OFFSET -25.15693 0.02248979 -1.271978
              CHANNELS 3 Zrotation Xrotation Yrotation
              End Site
              {
                OFFSET -15 0 0
              }
            }
          }
        }
      }
      JOINT left_manubrium
      {
        OFFSET 5.722621 16.35077 3.967754
        CHANNELS 3 Zrotation Xrotation Yrotation
        JOINT left_clavicle
        {
          OFFSET 13.16364 1.694482 -4.693211
          CHANNELS 3 Zrotation Xrotation Yrotation
          JOINT left_humerus
          {
            OFFSET 29.39168 -1.063119 -2.237045
            CHANNELS 3 Zrotation Xrotation Yrotation
            JOINT left_radius
            {
              OFFSET 24.59957 -0.9528479 0.9047498
              CHANNELS 3 Zrotation Xrotation Yrotation
              End Site
              {
                OFFSET 15 -0 -0
              }
            }
          }
        }
      }
    }
  }
}
MOTION
Frames: 21
Frame Time: 0.0416666666667
23.27858 103.0928 3187.553 0.3837741 -5.044503 -10.44322 0.5095063 18.53406 4.431473 -0 27.35859 -0 1.458666 -7.315133 -1.608881 -1.311114 -23.84809 -5.509292 -0 18.90086 -0 -4.978475 -7.802525 20.01597 0.6327041 -2.280409 13.12216 1.756559 15.06037 -7.753567 -0.6491625 16.41439 -2.132764 0.7274196 -11.66302 -2.924091 0.4395714 -32.58271 13.40582 83.26303 21.36605 -8.64348 -0 0 37.60731 -11.83276 9.832099 10.24373 -1.228056 -22.2648 -7.976795 -93.98722 6.204417 45.08066 0 0 -9.156487 0.9436901 3.722797 15.07113
23.25261 103.4281 3194.985 0.9336066 -5.797066 -10.23817 -0.505177 17.23387 4.493942 -0 35.49659 -0 1.608829 -1.71478 -2.226301 -3.066337 -20.88913 -6.594961 -0 21.00016 -0 -4.289892 -8.857596 19.91658 0.6327871 -2.280765 13.12239 1.755892 15.06068 -7.753896 -0.6490254 16.41427 -2.133076 0.7283654 -11.6607 -2.925155 0.4398358 -32.58089 13.40548 83.26421 21.36666 -8.646415 -0 0 37.60569 -11.83197 9.831119 10.24235 -1.226757 -22.26696 -7.977407 -93.98501 6.204023 45.07641 0 0 -9.163318 0.943459 3.722594 15.07185
23.22969 104.256 3202.216 1.282615 -6.692105 -9.603041 -1.051805 13.67757 4.200506 -0 43.63968 -0 1.348868 2.948932 -3.07943 -4.465624 -16.66243 -7.380069 -0 22.35548 -0 -3.220002 -9.951063 19.37386 0.6330169 -2.281201 13.12301 1.755319 15.06116 -7.754281 -0.6488046 16.41381 -2.133994 0.7285904 -11.65852 -2.926241 0.4397128 -32.57978 13.40514 83.26552 21.36684 -8.648886 -0 0 37.60508 -11.83071 9.830422 10.24154 -1.226069 -22.26869 -7.977752 -93.98282 6.203801 45.07328 0 0 -9.170764 0.9422604 3.721502 15.07425
23.23408 105.3807 3208.972 1.287243 -7.393256 -8.635072 -1.068163 7.943846 3.711342 -0 49.91332 -0 0.8671369 5.184038 -4.097994 -5.280737 -11.52092 -7.887208 -0 22.09728 -0 -2.167682 -10.99003 18.49152 0.6333821 -2.281696 13.12398 1.754862 15.06178 -7.754704 -0.6485101 16.41304 -2.135471 0.7280941 -11.65658 -2.927302 0.4392116 -32.5794 13.40484 83.26691 21.36659 -8.650793 -0 0 37.6055 -11.82904 9.830036 10.24133 -1.226013 -22.26991 -7.97782 -93.98074 6.203758 45.07141 0 0 -9.178498 0.9401587 3.719581 15.07821
23.26781 106.489 3215.165 0.9928336 -7.761563 -7.519415 -0.7006204 0.9956379 3.204758 -0 52.42122 -0 0.3169807 4.948345 -5.160813 -5.521169 -6.109268 -8.196789 -0 20.3126 -0 -1.528508 -12.12366 17.57431 0.6338638 -2.282226 13.12526 1.754543 15.06252 -7.755144 -0.6481576 16.41199 -2.137433 0.7269034 -11.65497 -2.928287 0.4383598 -32.57978 13.40459 83.2683 21.36592 -8.652044 -0 0 37.60693 -11.82704 9.829978 10.24172 -1.226591 -22.27056 -7.977608 -93.97887 6.203896 45.07086 0 0 -9.186136 0.9372583 3.716925 15.08353
23.29239 107.2595 3220.918 0.6271861 -7.82411 -6.425815 -0.2113181 -5.905295 2.635079 -0 50.18617 -0 -0.2276616 3.44772 -6.069219 -5.393339 -1.036156 -8.304639 -0 17.76314 -0 -1.452781 -13.58851 16.79701 0.6344349 -2.28276 13.12677 1.754387 15.06334 -7.755577 -0.6477684 16.41071 -2.139777 0.7250768 -11.65379 -2.929143 0.4372064 -32.58092 13.40439 83.2696 21.36486 -8.652545 -0 0 37.60931 -11.82481 9.830254 10.2427 -1.227784 -22.2706 -7.977123 -93.97734 6.204207 45.07173 0 0 -9.193215 0.9337113 3.713668 15.08994
23.25048 107.4784 3226.465 0.4212891 -7.652481 -5.451795 0.1404178 -11.9244 1.857981 -0 43.78043 -0 -0.653337 1.805011 -6.706947 -5.171146 3.443621 -8.203668 -0 15.31604 -0 -1.88058 -15.4244 16.06181 0.6350599 -2.283263 13.12844 1.754412 15.06417 -7.755975 -0.6473691 16.40929 -2.142368 0.7227126 -11.65312 -2.929818 0.4358233 -32.58275 13.40428 83.27072 21.36346 -8.652232 -0 0 37.61253 -11.82249 9.830854 10.24423 -1.229537 -22.26998 -7.976387 -93.97627 6.204674 45.07401 0 0 -9.199239 0.9297207 3.709989 15.09706
23.09799 107.0953 3232.03 0.4631944 -7.298903 -4.627638 0.2335267 -16.80588 0.8967326 -0 34.97226 -0 -0.8266062 0.4460797 -7.13075 -5.046837 7.36222 -7.951449 -0 13.63645 -0 -2.634008 -17.37827 15.22555 0.635698 -2.2837 13.13017 1.754623 15.06497 -7.756314 -0.6469879 16.4078 -2.145044 0.719952 -11.65301 -2.930267 0.434301 -32.5852 13.40425 83.27155 21.36181 -8.651095 -0 0 37.61643 -11.82021 9.831747 10.24622 -1.231757 -22.26875 -7.975439 -93.97574 6.205266 45.07761 0 0 -9.203768 0.9255315 3.706109 15.10445
22.81336 106.21 3237.787 0.6979476 -6.818843 -3.946409 0.1404779 -20.56651 -0.02370296 -0 25.79934 -0 -0.7290772 -0.5432816 -7.473583 -5.070905 10.79971 -7.626142 -0 13.19502 -0 -3.49214 -19.05622 14.31785 0.6363076 -2.284044 13.13183 1.755009 15.06568 -7.75657 -0.6466505 16.40633 -2.147637 0.7169704 -11.65346 -2.930464 0.4327398 -32.58811 13.40432 83.27205 21.36001 -8.649195 -0 0 37.62076 -11.81812 9.832875 10.24856 -1.234304 -22.26695 -7.97434 -93.97579 6.205946 45.08232 0 0 -9.206485 0.9214107 3.702272 15.11165
22.38821 105.0286 3243.856 0.993605 -6.302922 -3.391357 0.0700527 -23.20515 -0.61464 -0 17.95579 -0 -0.4899616 -1.117064 -7.825129 -5.180257 13.75571 -7.302649 -0 14.33684 -0 -4.297747 -20.08671 13.50517 0.6368501 -2.284272 13.13334 1.755544 15.06626 -7.756728 -0.646378 16.405 -2.14998 0.7139608 -11.65446 -2.930397 0.4312398 -32.59129 13.40448 83.27217 21.35819 -8.646663 -0 0 37.62525 -11.81635 9.834166 10.25108 -1.237011 -22.26473 -7.973161 -93.97642 6.206669 45.08783 0 0 -9.207239 0.9176215 3.698725 15.11819
21.81847 103.8173 3250.303 1.197067 -5.873768 -2.954882 0.270816 -24.60124 -0.6384853 -0 12.62781 -0 -0.3024711 -1.298436 -8.198529 -5.248763 16.10711 -7.057445 -0 17.27841 -0 -5.023213 -20.18095 12.95449 0.6372927 -2.284373 13.13459 1.75619 15.06667 -7.75678 -0.6461855 16.40386 -2.151927 0.7111152 -11.65592 -2.930075 0.4298931 -32.59453 13.40472 83.27193 21.35644 -8.643676 -0 0 37.62959 -11.81502 9.835533 10.25363 -1.239703 -22.26222 -7.971979 -93.97757 6.207389 45.09375 0 0 -9.206027 0.9144008 3.69569 15.12367
21.10571 102.8491 3257.124 1.181742 -5.660508 -2.653869 0.9175807 -24.56712 0.009582875 -0 10.37778 -0 -0.3149811 -1.283627 -8.559242 -5.142898 17.60433 -6.939828 -0 22.03742 -0 -5.738083 -19.17219 12.75091 0.6376097 -2.284342 13.13551 1.756903 15.0669 -7.756723 -0.6460827 16.40301 -2.153362 0.7086094 -11.65775 -2.929516 0.4287786 -32.59762 13.40502 83.27135 21.35489 -8.640432 -0 0 37.63351 -11.81419 9.836893 10.25604 -1.242207 -22.2596 -7.970869 -93.97916 6.208064 45.09971 0 0 -9.202961 0.9119451 3.693358 15.12775
20.26564 102.3389 3264.238 0.9060115 -5.76434 -2.538989 1.989397 -22.99584 1.230015 -0 10.94351 -0 -0.5567309 -1.436923 -8.87484 -4.797532 17.92707 -6.918178 -0 28.37908 -0 -6.481959 -17.10169 12.90193 0.6377833 -2.284181 13.13603 1.757639 15.06692 -7.75656 -0.6460739 16.40248 -2.154194 0.7065912 -11.65985 -2.92875 0.4279576 -32.60037 13.40535 83.27047 21.35363 -8.637129 -0 0 37.63676 -11.81393 9.838166 10.25816 -1.244374 -22.25701 -7.969896 -93.98109 6.208654 45.10534 0 0 -9.198235 0.9104039 3.691873 15.13019
19.33487 102.3892 3271.484 0.4549102 -6.218235 -2.681366 3.230546 -20.0132 2.718806 -0 13.24099 -0 -0.9500877 -2.114819 -9.123897 -4.2768 16.78464 -6.895598 -0 35.83449 -0 -7.141323 -14.31182 13.39359 0.6378033 -2.283899 13.13613 1.758357 15.06674 -7.756297 -0.6461591 16.40232 -2.15437 0.7051744 -11.6621 -2.927808 0.4274724 -32.60264 13.40571 83.26936 21.35273 -8.63395 -0 0 37.63916 -11.81427 9.839285 10.25989 -1.246078 -22.25461 -7.969116 -93.98325 6.20913 45.11032 0 0 -9.192093 0.909877 3.691337 15.13081
18.36833 102.9717 3278.661 0.006352948 -6.949834 -3.123178 4.272624 -15.99778 4.063673 -0 15.80539 -0 -1.405323 -3.41599 -9.209013 -3.7404 13.99806 -6.838005 -0 43.6856 -0 -7.533657 -11.43571 14.1968 0.6376672 -2.283506 13.13578 1.759019 15.06636 -7.755944 -0.6463335 16.40254 -2.153864 0.704438 -11.66443 -2.926728 0.4273465 -32.60429 13.40607 83.26807 21.35223 -8.63106 -0 0 37.64054 -11.81521 9.840196 10.26112 -1.247225 -22.25252 -7.968571 -93.98554 6.20947 45.11437 0 0 -9.184828 0.9104118 3.691802 15.12956
17.42535 103.9468 3285.581 -0.2715292 -7.777138 -3.821415 4.841293 -11.40962 4.907541 -0 17.42162 -0 -1.840696 -5.091826 -8.918885 -3.319979 9.577636 -6.817066 -0 50.84215 -0 -7.671872 -9.169737 15.20694 0.6373806 -2.283021 13.13499 1.75959 15.06581 -7.755518 -0.646588 16.40314 -2.152693 0.7044269 -11.6667 -2.925557 0.4275866 -32.60524 13.40641 83.26667 21.35218 -8.628612 -0 0 37.64083 -11.81671 9.84085 10.2618 -1.247749 -22.25084 -7.968291 -93.98784 6.209656 45.11728 0 0 -9.176798 0.9119988 3.693263 15.12646
16.54845 105.0963 3292.147 -0.3146055 -8.486338 -4.655847 4.905594 -6.580142 5.185643 -0 17.56313 -0 -2.07761 -6.756645 -8.152046 -3.001444 3.843922 -6.817216 -0 55.87805 -0 -7.767355 -7.882313 16.28321 0.6369574 -2.282471 13.1338 1.760035 15.0651 -7.755041 -0.6469097 16.40409 -2.150912 0.7051541 -11.66879 -2.924363 0.4281856 -32.60541 13.40671 83.26524 21.35258 -8.626755 -0 0 37.63998 -11.8187 9.841206 10.26186 -1.24761 -22.24968 -7.968297 -93.99001 6.209675 45.11885 0 0 -9.168454 0.9145627 3.695652 15.12166
15.75289 106.1568 3298.372 -0.2049719 -8.971093 -5.515134 4.67609 -1.708823 5.176719 -0 16.47154 -0 -1.93099 -8.217894 -7.119267 -2.593328 -2.546049 -6.62495 -0 57.46267 -0 -7.867967 -7.428038 17.37333 0.6364207 -2.281891 13.13229 1.760321 15.06429 -7.754546 -0.6472808 16.40533 -2.148626 0.7065979 -11.67053 -2.923235 0.4291215 -32.60477 13.40696 83.26387 21.35341 -8.625634 -0 0 37.63803 -11.82104 9.841225 10.2613 -1.246794 -22.24914 -7.9686 -93.99191 6.209517 45.11895 0 0 -9.160353 0.9179563 3.698827 15.11544
15.04422 106.8677 3304.343 -0.1259882 -9.24245 -6.360783 4.437816 2.974973 5.130284 -0 14.80702 -0 -1.501483 -9.595072 -6.107154 -1.85748 -8.826874 -6.051306 -0 54.92174 -0 -7.746167 -7.397302 18.45903 0.6358035 -2.281325 13.13056 1.760418 15.06342 -7.754073 -0.6476787 16.40678 -2.145989 0.7086936 -11.67177 -2.922275 0.4303522 -32.60332 13.40712 83.26265 21.35465 -8.625375 -0 0 37.63507 -11.82357 9.840878 10.26009 -1.245327 -22.2493 -7.969193 -93.99338 6.209178 45.11748 0 0 -9.153126 0.9219605 3.702573 15.10822
14.44077 107.0485 3310.163 -0.2181412 -9.250878 -7.201215 4.345154 7.180707 5.000348 -0 13.18607 -0 -1.129181 -11.13513 -5.163835 -0.7397549 -14.42829 -5.157529 -0 48.58733 -0 -7.238253 -7.439903 19.39535 0.6351472 -2.280818 13.12873 1.760308 15.06256 -7.753662 -0.6480767 16.40834 -2.143185 0.7113247 -11.67234 -2.921582 0.43181 -32.60113 13.4072 83.26167 21.35622 -8.626052 -0 0 37.6313 -11.82608 9.840163 10.25831 -1.243281 -22.25019 -7.970051 -93.99428 6.208667 45.11448 0 0 -9.147387 0.9262969 3.706625 15.10051
13.96661 106.6726 3315.946 -0.4624407 -8.822611 -8.033764 4.338679 10.6732 4.667391 -0 12.04526 -0 -0.9986805 -12.90516 -4.185091 0.5374864 -19.04819 -4.196084 -0 39.83077 -0 -6.474807 -7.356896 19.96013 0.6344982 -2.280409 13.12695 1.759991 15.06177 -7.753347 -0.6484464 16.40989 -2.14042 0.7143202 -11.67219 -2.921222 0.4334005 -32.59832 13.40716 83.26102 21.35802 -8.627654 -0 0 37.62696 -11.82839 9.839114 10.25605 -1.240784 -22.25178 -7.971122 -93.99451 6.208012 45.1101 0 0 -9.143628 0.9306543 3.710687 15.09285
